<?xml version="1.0" encoding="UTF-8" standalone="no"?>
<!-- Created with Inkscape (http://www.inkscape.org/) -->

<svg
   xmlns:dc="http://purl.org/dc/elements/1.1/"
   xmlns:cc="http://creativecommons.org/ns#"
   xmlns:rdf="http://www.w3.org/1999/02/22-rdf-syntax-ns#"
   xmlns:svg="http://www.w3.org/2000/svg"
   xmlns="http://www.w3.org/2000/svg"
   xmlns:sodipodi="http://sodipodi.sourceforge.net/DTD/sodipodi-0.dtd"
   xmlns:inkscape="http://www.inkscape.org/namespaces/inkscape"
   width="210mm"
   height="297mm"
   viewBox="0 0 210 297"
   version="1.1"
   id="svg8"
   inkscape:version="0.92.2 (5c3e80d, 2017-08-06)"
   sodipodi:docname="little_s.svg">
  <defs
     id="defs2">
    <inkscape:path-effect
       effect="spiro"
       id="path-effect4510"
       is_visible="true" />
  </defs>
  <sodipodi:namedview
     id="base"
     pagecolor="#ffffff"
     bordercolor="#666666"
     borderopacity="1.0"
     inkscape:pageopacity="0.0"
     inkscape:pageshadow="2"
     inkscape:zoom="1.4"
     inkscape:cx="324.079"
     inkscape:cy="818.92728"
     inkscape:document-units="mm"
     inkscape:current-layer="layer1"
     showgrid="false"
     inkscape:window-width="1920"
     inkscape:window-height="1001"
     inkscape:window-x="-9"
     inkscape:window-y="-9"
     inkscape:window-maximized="1" />
  <metadata
     id="metadata5">
    <rdf:RDF>
      <cc:Work
         rdf:about="">
        <dc:format>image/svg+xml</dc:format>
        <dc:type
           rdf:resource="http://purl.org/dc/dcmitype/StillImage" />
        <dc:title></dc:title>
      </cc:Work>
    </rdf:RDF>
  </metadata>
  <g
     inkscape:label="Layer 1"
     inkscape:groupmode="layer"
     id="layer1">
    <path
       style="fill:none;stroke:#e00000;stroke-width:0.26458332px;stroke-linecap:butt;stroke-linejoin:miter;stroke-opacity:0.33333334"
       d="m 168.08979,46.751413 c 0,0 -6.94798,-26.113955 -48.38095,-26.458333 -17.977,-0.149419 -46.272138,9.464157 -46.113094,27.441069 0.296699,33.536247 94.284464,13.475496 95.061014,49.13687 0.41578,19.093731 -33.27845,28.247501 -49.70387,28.499401 -13.80028,0.21164 -45.418592,-7.00454 -45.168155,-28.348218"
       id="path10"
       inkscape:connector-curvature="0"
       sodipodi:nodetypes="cssasc" />
    <path
       style="fill:none;stroke:#000000;stroke-width:0.26458332px;stroke-linecap:butt;stroke-linejoin:miter;stroke-opacity:1"
       d="m 165.93533,50.153197 c -1.15052,-7.827348 -4.47137,-15.324337 -9.49523,-21.435955 -5.02386,-6.111618 -11.73647,-10.820519 -19.1932,-13.464044 -7.45673,-2.643525 -15.63642,-3.21417 -23.38798,-1.631632 -7.75155,1.582538 -15.052979,5.313767 -20.876783,10.668612 -6.694148,6.155104 -11.441501,14.602807 -12.359994,23.650088 -0.459247,4.52364 0.03571,9.153964 1.548583,13.441791 1.512869,4.287827 4.050997,8.224139 7.40963,11.289072 4.530057,4.133921 10.394526,6.573232 16.379024,7.91357 5.9845,1.340339 12.144,1.651811 18.26622,2.011139 6.12222,0.359329 12.28472,0.777872 18.21981,2.322378 5.93508,1.544506 11.69017,4.296264 15.92661,8.730591 5.43323,5.687016 7.94079,13.862433 7.32317,21.703403 -0.61762,7.84096 -4.19574,15.30141 -9.40203,21.19689 -5.80991,6.579 -13.67306,11.31824 -22.20397,13.38267 -8.5309,2.06443 -17.6909,1.4447 -25.86599,-1.75001 -8.17509,-3.19471 -15.328216,-8.94991 -20.199003,-16.25154 -4.870786,-7.30162 -7.437151,-16.11657 -7.246902,-24.89165"
       id="path4508"
       inkscape:connector-curvature="0"
       inkscape:path-effect="#path-effect4510"
       inkscape:original-d="M 165.93533,50.153197 C 165.24137,59.674784 104.41184,30.247705 92.982137,24.290178 8.6775165,-19.652102 80.421149,59.349181 89.580356,72.671129 c 13.581784,19.75453 -8.368375,-16.766682 68.791664,20.977678 16.4417,8.126753 9.93638,35.115253 -2.07886,42.900293 -22.68099,14.69571 -86.415174,-9.59458 -75.515865,-29.51053"
       sodipodi:nodetypes="csacac" />
  </g>
</svg>
